<svg version="1.1" viewBox="0.0 0.0 960.0 720.0" fill="none" stroke="none" stroke-linecap="square" stroke-miterlimit="10" xmlns:xlink="http://www.w3.org/1999/xlink" xmlns="http://www.w3.org/2000/svg"><clipPath id="p.0"><path d="m0 0l960.0 0l0 720.0l-960.0 0l0 -720.0z" clip-rule="nonzero"/></clipPath><g clip-path="url(#p.0)"><path fill="#000000" fill-opacity="0.0" d="m0 0l960.0 0l0 720.0l-960.0 0z" fill-rule="evenodd"/><path fill="#ffffff" d="m105.13606 215.08176l0 0c-5.0019455 -30.412643 21.074005 -58.172684 67.16287 -71.50049c46.088852 -13.327805 104.10762 -9.885971 149.43681 8.86499l0 0c17.778809 -16.118576 48.82193 -25.827904 83.73944 -26.191078c34.91751 -0.36317444 69.608215 8.662453 93.57886 24.34681l0 0c15.217194 -14.682373 43.558197 -23.17685 74.966156 -22.469147c31.407898 0.7077179 61.437744 10.517441 79.43335 25.948196l0 0c26.602905 -14.77121 67.45184 -18.7482 104.871216 -10.210098c37.419373 8.538116 64.688354 28.0578 70.00745 50.112793l0 0c30.687866 7.0874634 55.637512 21.091522 68.40259 38.393982c12.765137 17.302444 12.093567 36.205963 -1.8412476 51.826477l0 0c28.887146 24.580322 33.794006 54.793243 12.889404 79.36386c-20.904602 24.570587 -64.47998 39.807404 -114.46454 40.024323c-2.19635 24.378143 -27.805603 44.96277 -66.95685 53.819702c-39.151184 8.856964 -85.730774 4.6031494 -121.78491 -11.121796l0 0c-17.984741 28.035767 -64.009094 46.184174 -118.18881 46.60443c-54.17975 0.42025757 -106.802124 -16.962952 -135.1323 -44.639496l0 0c-38.027832 9.709656 -82.79483 9.949432 -124.20245 0.6652527c-41.407654 -9.28421 -75.96796 -27.310303 -95.88483 -50.011963l0 0c-38.08 -0.3842163 -73.88543 -14.142273 -89.64618 -34.446045c-15.760748 -20.303772 -8.121727 -42.831116 19.12584 -56.401764l0 0c-32.958626 -13.690308 -48.534546 -37.088104 -38.60553 -57.99234c9.929014 -20.904251 43.113014 -34.577972 82.24785 -33.89087z" fill-rule="evenodd"/><path fill="#000000" fill-opacity="0.0" d="m60.65766 308.0593l0 0c15.553276 6.4604797 33.799828 10.237518 52.28975 10.823975m18.222145 80.025116c7.9643555 0.08035278 15.815582 -0.4312439 23.351227 -1.5215759m196.72507 50.86609c-5.220093 -5.09964 -9.508759 -10.451538 -12.792908 -15.964508m266.12372 13.99939l0 0c3.2788696 -5.111328 5.557007 -10.454926 6.7963867 -15.94165m181.9383 -26.7547c2.3383179 -25.954285 -22.230896 -51.738434 -63.154602 -66.277374m164.72864 -53.108154c-7.436157 8.335754 -18.36029 15.402954 -31.915771 20.647552m-34.6391 -110.86986l0 0c0.8826904 3.6600342 1.1419678 7.3269196 0.7741699 10.949844m-175.6499 -50.85121l0 0c-6.6361084 3.6846924 -12.195801 7.942642 -16.506104 12.641296m-137.89471 -16.122284l0 0c-3.6546936 3.526245 -6.4728394 7.3369446 -8.389557 11.344345m-168.93134 -9.499954l0 0c9.591644 3.9676971 18.397278 8.536087 26.22351 13.604828m-242.82051 49.031296l0 0c0.6893997 4.1916504 1.9631271 8.376465 3.8092728 12.515274" fill-rule="evenodd"/><path stroke="#ffffff" stroke-width="1.0" stroke-linejoin="round" stroke-linecap="butt" d="m105.13606 215.08176l0 0c-5.0019455 -30.412643 21.074005 -58.172684 67.16287 -71.50049c46.088852 -13.327805 104.10762 -9.885971 149.43681 8.86499l0 0c17.778809 -16.118576 48.82193 -25.827904 83.73944 -26.191078c34.91751 -0.36317444 69.608215 8.662453 93.57886 24.34681l0 0c15.217194 -14.682373 43.558197 -23.17685 74.966156 -22.469147c31.407898 0.7077179 61.437744 10.517441 79.43335 25.948196l0 0c26.602905 -14.77121 67.45184 -18.7482 104.871216 -10.210098c37.419373 8.538116 64.688354 28.0578 70.00745 50.112793l0 0c30.687866 7.0874634 55.637512 21.091522 68.40259 38.393982c12.765137 17.302444 12.093567 36.205963 -1.8412476 51.826477l0 0c28.887146 24.580322 33.794006 54.793243 12.889404 79.36386c-20.904602 24.570587 -64.47998 39.807404 -114.46454 40.024323c-2.19635 24.378143 -27.805603 44.96277 -66.95685 53.819702c-39.151184 8.856964 -85.730774 4.6031494 -121.78491 -11.121796l0 0c-17.984741 28.035767 -64.009094 46.184174 -118.18881 46.60443c-54.17975 0.42025757 -106.802124 -16.962952 -135.1323 -44.639496l0 0c-38.027832 9.709656 -82.79483 9.949432 -124.20245 0.6652527c-41.407654 -9.28421 -75.96796 -27.310303 -95.88483 -50.011963l0 0c-38.08 -0.3842163 -73.88543 -14.142273 -89.64618 -34.446045c-15.760748 -20.303772 -8.121727 -42.831116 19.12584 -56.401764l0 0c-32.958626 -13.690308 -48.534546 -37.088104 -38.60553 -57.99234c9.929014 -20.904251 43.113014 -34.577972 82.24785 -33.89087z" fill-rule="evenodd"/><path stroke="#ffffff" stroke-width="1.0" stroke-linejoin="round" stroke-linecap="butt" d="m60.65766 308.0593l0 0c15.553276 6.4604797 33.799828 10.237518 52.28975 10.823975m18.222145 80.025116c7.9643555 0.08035278 15.815582 -0.4312439 23.351227 -1.5215759m196.72507 50.86609c-5.220093 -5.09964 -9.508759 -10.451538 -12.792908 -15.964508m266.12372 13.99939l0 0c3.2788696 -5.111328 5.557007 -10.454926 6.7963867 -15.94165m181.9383 -26.7547c2.3383179 -25.954285 -22.230896 -51.738434 -63.154602 -66.277374m164.72864 -53.108154c-7.436157 8.335754 -18.36029 15.402954 -31.915771 20.647552m-34.6391 -110.86986l0 0c0.8826904 3.6600342 1.1419678 7.3269196 0.7741699 10.949844m-175.6499 -50.85121l0 0c-6.6361084 3.6846924 -12.195801 7.942642 -16.506104 12.641296m-137.89471 -16.122284l0 0c-3.6546936 3.526245 -6.4728394 7.3369446 -8.389557 11.344345m-168.93134 -9.499954l0 0c9.591644 3.9676971 18.397278 8.536087 26.22351 13.604828m-242.82051 49.031296l0 0c0.6893997 4.1916504 1.9631271 8.376465 3.8092728 12.515274" fill-rule="evenodd"/></g></svg>