<svg version="1.1" viewBox="0.0 0.0 128.0 128.0" fill="none" stroke="none" stroke-linecap="square" stroke-miterlimit="10" xmlns:xlink="http://www.w3.org/1999/xlink" xmlns="http://www.w3.org/2000/svg"><clipPath id="p.0"><path d="m0 0l128.0 0l0 128.0l-128.0 0l0 -128.0z" clip-rule="nonzero"/></clipPath><g clip-path="url(#p.0)"><path fill="#000000" fill-opacity="0.0" d="m0 0l128.0 0l0 128.0l-128.0 0z" fill-rule="evenodd"/><path fill="#000000" fill-opacity="0.0" d="m10.188976 30.884514l0 0c0 -7.444971 6.035343 -13.480314 13.480314 -13.480314l4.4566936 0l0 0l26.905514 0l49.299213 0c3.5751953 0 7.0039673 1.4202442 9.532021 3.9482918c2.5280457 2.5280495 3.948288 5.9568214 3.948288 9.532022l0 33.70079l0 0l0 20.220467l0 0c0 7.444977 -6.0353394 13.480316 -13.480309 13.480316l-49.299213 0l-13.538498 18.987022l-13.367016 -18.987022l-4.4566936 0l0 0c-7.444971 0 -13.480314 -6.0353394 -13.480314 -13.480316l0 0l0 -20.220467l0 0z" fill-rule="evenodd"/><path stroke="#000000" stroke-width="3.0" stroke-linejoin="round" stroke-linecap="butt" d="m10.188976 30.884514l0 0c0 -7.444971 6.035343 -13.480314 13.480314 -13.480314l4.4566936 0l0 0l26.905514 0l49.299213 0c3.5751953 0 7.0039673 1.4202442 9.532021 3.9482918c2.5280457 2.5280495 3.948288 5.9568214 3.948288 9.532022l0 33.70079l0 0l0 20.220467l0 0c0 7.444977 -6.0353394 13.480316 -13.480309 13.480316l-49.299213 0l-13.538498 18.987022l-13.367016 -18.987022l-4.4566936 0l0 0c-7.444971 0 -13.480314 -6.0353394 -13.480314 -13.480316l0 0l0 -20.220467l0 0z" fill-rule="evenodd"/></g></svg>